<svg width="130" height="34" viewBox="0 0 130 34" fill="none" xmlns="http://www.w3.org/2000/svg">
<path d="M41.12 27V23.136L51.746 11.264H41.12V7.4H56.968V11.264L46.342 23.136H56.968V27H41.12ZM65.34 27.364C64.052 27.364 62.876 27.0327 61.812 26.37C60.7573 25.7073 59.9127 24.8207 59.278 23.71C58.6527 22.59 58.34 21.3533 58.34 20C58.34 18.9733 58.522 18.0167 58.886 17.13C59.25 16.234 59.7493 15.45 60.384 14.778C61.028 14.0967 61.7747 13.5647 62.624 13.182C63.4733 12.7993 64.3787 12.608 65.34 12.608C66.628 12.608 67.7993 12.9393 68.854 13.602C69.918 14.2647 70.7627 15.156 71.388 16.276C72.0227 17.396 72.34 18.6373 72.34 20C72.34 21.0173 72.158 21.9693 71.794 22.856C71.43 23.7427 70.926 24.5267 70.282 25.208C69.6473 25.88 68.9053 26.4073 68.056 26.79C67.216 27.1727 66.3107 27.364 65.34 27.364ZM65.34 23.5C65.9373 23.5 66.474 23.3413 66.95 23.024C67.426 22.6973 67.7993 22.268 68.07 21.736C68.3407 21.204 68.476 20.6253 68.476 20C68.476 19.356 68.3313 18.768 68.042 18.236C67.762 17.6947 67.384 17.2653 66.908 16.948C66.432 16.6307 65.9093 16.472 65.34 16.472C64.752 16.472 64.22 16.6353 63.744 16.962C63.268 17.2887 62.89 17.718 62.61 18.25C62.3393 18.782 62.204 19.3653 62.204 20C62.204 20.6627 62.344 21.26 62.624 21.792C62.9133 22.3147 63.296 22.73 63.772 23.038C64.248 23.346 64.7707 23.5 65.34 23.5Z" fill="#04091E"/>
<path d="M81.974 27.364C80.8726 27.364 79.818 27.1913 78.81 26.846C77.8113 26.5007 76.934 26.0013 76.178 25.348C75.4313 24.6947 74.8946 23.92 74.568 23.024L78.194 21.68C78.306 21.9973 78.5393 22.296 78.894 22.576C79.2486 22.8467 79.692 23.0707 80.224 23.248C80.756 23.416 81.3393 23.5 81.974 23.5C82.5806 23.5 83.15 23.4113 83.682 23.234C84.2233 23.0473 84.6573 22.7907 84.984 22.464C85.32 22.1373 85.488 21.7547 85.488 21.316C85.488 20.8773 85.3153 20.5133 84.97 20.224C84.6246 19.9347 84.1813 19.706 83.64 19.538C83.0986 19.3607 82.5433 19.2253 81.974 19.132C80.5646 18.9267 79.3 18.5953 78.18 18.138C77.0693 17.6713 76.192 17.032 75.548 16.22C74.904 15.3987 74.582 14.358 74.582 13.098C74.582 11.8847 74.9226 10.8253 75.604 9.92C76.2946 9.01467 77.2 8.31 78.32 7.806C79.4493 7.302 80.6673 7.05 81.974 7.05C83.0566 7.05 84.102 7.22267 85.11 7.568C86.118 7.91333 86.9953 8.41267 87.742 9.066C88.498 9.71933 89.0393 10.5033 89.366 11.418L85.74 12.734C85.628 12.4167 85.3946 12.1227 85.04 11.852C84.6853 11.5813 84.242 11.362 83.71 11.194C83.178 11.026 82.5993 10.942 81.974 10.942C81.3766 10.9327 80.8073 11.0213 80.266 11.208C79.734 11.3947 79.2953 11.6513 78.95 11.978C78.614 12.3047 78.446 12.678 78.446 13.098C78.446 13.6487 78.6046 14.064 78.922 14.344C79.2486 14.624 79.678 14.8247 80.21 14.946C80.742 15.0673 81.33 15.1747 81.974 15.268C83.2993 15.464 84.522 15.814 85.642 16.318C86.762 16.8127 87.658 17.4753 88.33 18.306C89.0113 19.1273 89.352 20.1307 89.352 21.316C89.352 22.5293 89.0113 23.5887 88.33 24.494C87.6486 25.3993 86.748 26.104 85.628 26.608C84.508 27.112 83.29 27.364 81.974 27.364ZM102.214 13H106.078V27H102.2L102.018 25.544C101.654 26.0853 101.187 26.524 100.618 26.86C100.048 27.196 99.3811 27.364 98.6158 27.364C97.5705 27.364 96.5951 27.168 95.6898 26.776C94.7845 26.384 93.9865 25.8427 93.2958 25.152C92.6051 24.4613 92.0638 23.6633 91.6718 22.758C91.2891 21.8433 91.0978 20.8633 91.0978 19.818C91.0978 18.8193 91.2798 17.886 91.6438 17.018C92.0078 16.15 92.5211 15.3847 93.1838 14.722C93.8465 14.0593 94.6071 13.5413 95.4658 13.168C96.3338 12.7947 97.2671 12.608 98.2658 12.608C99.1245 12.608 99.8945 12.79 100.576 13.154C101.266 13.518 101.868 13.98 102.382 14.54L102.214 13ZM98.5178 23.654C99.1525 23.654 99.7265 23.4907 100.24 23.164C100.753 22.8373 101.159 22.3987 101.458 21.848C101.756 21.288 101.906 20.672 101.906 20C101.906 19.3187 101.756 18.7027 101.458 18.152C101.159 17.6013 100.753 17.1627 100.24 16.836C99.7265 16.5093 99.1525 16.346 98.5178 16.346C97.8738 16.346 97.2905 16.5093 96.7678 16.836C96.2451 17.1627 95.8298 17.606 95.5218 18.166C95.2138 18.7167 95.0598 19.328 95.0598 20C95.0598 20.672 95.2138 21.288 95.5218 21.848C95.8391 22.3987 96.2591 22.8373 96.7818 23.164C97.3045 23.4907 97.8831 23.654 98.5178 23.654ZM108.918 27V6H112.782V27H108.918ZM122.024 27.364C120.736 27.364 119.56 27.0327 118.496 26.37C117.441 25.7073 116.596 24.816 115.962 23.696C115.336 22.576 115.024 21.3393 115.024 19.986C115.024 18.9687 115.206 18.0167 115.57 17.13C115.934 16.234 116.433 15.45 117.068 14.778C117.712 14.0967 118.458 13.5647 119.308 13.182C120.157 12.7993 121.062 12.608 122.024 12.608C123.134 12.608 124.147 12.846 125.062 13.322C125.986 13.798 126.765 14.4467 127.4 15.268C128.044 16.0893 128.501 17.018 128.772 18.054C129.052 19.09 129.098 20.168 128.912 21.288H119.196C119.317 21.6987 119.504 22.072 119.756 22.408C120.017 22.7347 120.334 22.996 120.708 23.192C121.09 23.388 121.529 23.4907 122.024 23.5C122.509 23.5093 122.957 23.3973 123.368 23.164C123.778 22.9307 124.128 22.618 124.418 22.226L128.366 23.136C127.796 24.3773 126.947 25.3947 125.818 26.188C124.688 26.972 123.424 27.364 122.024 27.364ZM119.056 18.432H125.006C124.884 17.9653 124.679 17.5453 124.39 17.172C124.1 16.7987 123.75 16.5047 123.34 16.29C122.938 16.0753 122.5 15.968 122.024 15.968C121.557 15.968 121.118 16.0753 120.708 16.29C120.306 16.5047 119.961 16.7987 119.672 17.172C119.392 17.536 119.186 17.956 119.056 18.432Z" fill="#34CAA5"/>
<path d="M4.10645 23.2581L19.0942 23.2581L32 12.8483L16.3164 12.8483L4.10645 23.2581Z" fill="#34CAA5"/>
<path d="M4.03125 23.3156L4.03125 32L31.9824 32L31.9824 23.2696L19.088 23.2638L19.0938 23.2581L4.10602 23.2581L4.03125 23.3156Z" fill="#04091E"/>
<path d="M3.07715 3.35315L3.07715 5.56738L5.29138 5.56738L5.29138 3.35315L3.07715 3.35315Z" fill="#34CAA5"/>
<path d="M1.27734 1.54713L1.27734 3.35303L3.08324 3.35303L3.08324 1.54713L1.27734 1.54713Z" fill="#04091E"/>
<path d="M-5.58098e-08 3.3531L0 4.62988L1.27678 4.62988L1.27678 3.3531L-5.58098e-08 3.3531Z" fill="#34CAA5"/>
<path d="M6.50391 4.1063L6.50391 6.98193L9.37954 6.98193L9.37954 4.1063L6.50391 4.1063Z" fill="#04091E"/>
<path d="M11.9105 6.98211L9.37992 6.98211L9.37992 9.80022L6.50429 9.80022L6.50429 6.98211L4.03125 6.98211L4.03125 12.7909L16.3735 12.7909L16.3159 12.8484L31.9996 12.8484L31.9824 4.10648L11.9105 4.10648L11.9105 6.98211Z" fill="#04091E"/>
</svg>
