<svg width="48" height="48" viewBox="0 0 48 48" fill="none" xmlns="http://www.w3.org/2000/svg">
<rect width="48" height="48" rx="12" fill="#4DBEBD"/>
<path d="M24 40C32.8366 40 40 32.8366 40 24C40 15.1634 32.8366 8 24 8C15.1634 8 8 15.1634 8 24C8 32.8366 15.1634 40 24 40Z" fill="#4DBEBD"/>
<path d="M35.6099 32.4333L34.5124 32.8376L35.2633 31.7402C36.7651 29.5452 37.6316 26.8882 37.6316 24.0001C37.5738 16.4333 31.5088 10.3105 23.9998 10.3105C16.5485 10.3105 10.4258 16.4333 10.4258 24.0001C10.4258 31.5669 16.4908 37.6896 23.9998 37.6896C25.5016 37.6896 27.0034 37.4586 28.3319 36.9965L28.2742 35.2636C26.9456 35.7835 25.5016 36.0723 23.9998 36.0723C17.415 36.0723 12.1009 30.6427 12.1009 24.0001C12.1009 17.3575 17.415 11.9856 24.0575 11.9856C30.7001 11.9856 36.0142 17.3575 36.0142 24.0001C36.0142 26.5416 35.2056 28.9098 33.877 30.816L33.1839 31.9134L33.1261 30.7004C33.0684 30.4116 32.7796 30.1806 32.4908 30.2383C32.202 30.2961 31.9709 30.5849 32.0287 30.8737L32.664 33.9351C32.664 33.9929 32.7218 34.0506 32.7796 34.0506L35.8409 33.4152C36.1298 33.3575 36.3608 33.0687 36.303 32.7799C36.1875 32.5488 35.8987 32.3755 35.6099 32.4333Z" fill="white"/>
<path d="M20.9394 28.6785C20.073 28.6785 19.3799 29.3717 19.3799 30.2381C19.3799 31.1045 20.073 31.7977 20.9394 31.7977C21.8059 31.7977 22.499 31.1045 22.499 30.2381C22.499 29.3717 21.7481 28.6785 20.9394 28.6785ZM16.2607 16.2598V17.8193H17.8203L20.5929 23.711L19.4954 25.5594C19.4376 25.7905 19.3221 26.0793 19.3221 26.3103C19.3221 27.1767 20.0153 27.8699 20.8817 27.8699H30.1813V26.3103H21.2283C21.1705 26.3103 21.055 26.2525 21.055 26.137V26.0793L21.7481 24.7507H27.4665C28.1019 24.7507 28.564 24.4619 28.795 23.9998L31.5676 18.9746C31.7409 18.8013 31.7409 18.7435 31.7409 18.5702C31.7409 18.1081 31.4521 17.8193 30.99 17.8193H19.4954L18.8023 16.2598H16.2607ZM28.6795 28.6785C27.8131 28.6785 27.1199 29.3717 27.1199 30.2381C27.1199 31.1045 27.8131 31.7977 28.6795 31.7977C29.5459 31.7977 30.2391 31.1045 30.2391 30.2381C30.2391 29.3717 29.5459 28.6785 28.6795 28.6785Z" fill="white"/>
<path d="M26.4263 21.978C26.4263 22.2668 26.3108 22.4401 26.1375 22.6134C25.9642 22.7867 25.6754 22.9022 25.3288 22.9022V23.4798H24.9822V22.9022C24.5201 22.9022 24.1736 22.8444 23.8848 22.6712V22.0935C24.0581 22.1513 24.2313 22.2091 24.4046 22.2668C24.6357 22.3246 24.809 22.3246 24.9822 22.3246V21.2849L24.7512 21.2271C24.4624 21.1116 24.2313 20.9961 24.1158 20.8228C24.0003 20.6495 23.8848 20.4762 23.8848 20.2452C23.8848 20.0141 24.0003 19.7831 24.1736 19.6098C24.3469 19.4365 24.6357 19.3787 24.9822 19.321V18.8589H25.3288V19.321C25.6754 19.321 26.0219 19.4365 26.3685 19.552L26.1952 20.0719C25.9064 19.9564 25.6176 19.8986 25.3288 19.8986V20.8805L25.5599 20.9383C25.9064 21.0538 26.1375 21.2271 26.253 21.3426C26.3685 21.5737 26.4263 21.747 26.4263 21.978ZM24.5201 20.3029C24.5201 20.4185 24.5779 20.4762 24.6357 20.534C24.6934 20.5917 24.809 20.6495 24.9822 20.765V19.8986C24.809 19.8986 24.7512 19.9564 24.6357 20.0141C24.5201 20.0719 24.5201 20.2452 24.5201 20.3029ZM25.7909 21.978C25.7909 21.8625 25.7331 21.8047 25.6754 21.747C25.6176 21.6892 25.5021 21.6314 25.3288 21.5737V22.4401C25.6176 22.3824 25.7909 22.2091 25.7909 21.978Z" fill="#4DBEBD"/>
</svg>
