<svg width="40" height="40" viewBox="0 0 40 40" fill="none" xmlns="http://www.w3.org/2000/svg">
<rect x="0.5" y="0.5" width="39" height="39" rx="19.5" fill="white"/>
<rect x="0.5" y="0.5" width="39" height="39" rx="19.5" stroke="#F5F5F5"/>
<path d="M20.0003 20.8337C20.4606 20.8337 20.8337 20.4606 20.8337 20.0003C20.8337 19.5401 20.4606 19.167 20.0003 19.167C19.5401 19.167 19.167 19.5401 19.167 20.0003C19.167 20.4606 19.5401 20.8337 20.0003 20.8337Z" stroke="#3F435C" stroke-width="2" stroke-linecap="round" stroke-linejoin="round"/>
<path d="M20.0003 26.6667C20.4606 26.6667 20.8337 26.2936 20.8337 25.8333C20.8337 25.3731 20.4606 25 20.0003 25C19.5401 25 19.167 25.3731 19.167 25.8333C19.167 26.2936 19.5401 26.6667 20.0003 26.6667Z" stroke="#3F435C" stroke-width="2" stroke-linecap="round" stroke-linejoin="round"/>
<path d="M20.0003 15.0002C20.4606 15.0002 20.8337 14.6271 20.8337 14.1668C20.8337 13.7066 20.4606 13.3335 20.0003 13.3335C19.5401 13.3335 19.167 13.7066 19.167 14.1668C19.167 14.6271 19.5401 15.0002 20.0003 15.0002Z" stroke="#3F435C" stroke-width="2" stroke-linecap="round" stroke-linejoin="round"/>
</svg>
