<svg width="40" height="40" viewBox="0 0 40 40" fill="none" xmlns="http://www.w3.org/2000/svg">
<rect x="0.5" y="0.5" width="39" height="39" rx="19.5" fill="white"/>
<rect x="0.5" y="0.5" width="39" height="39" rx="19.5" stroke="#F5F5F5"/>
<path d="M22.5 18.3332L26.2942 16.4365C26.4212 16.3731 26.5623 16.3431 26.7042 16.3495C26.846 16.3559 26.9839 16.3984 27.1047 16.473C27.2255 16.5477 27.3252 16.6519 27.3944 16.7759C27.4636 16.8999 27.4999 17.0395 27.5 17.1815V22.8182C27.4999 22.9602 27.4636 23.0998 27.3944 23.2238C27.3252 23.3478 27.2255 23.4521 27.1047 23.5267C26.9839 23.6013 26.846 23.6438 26.7042 23.6502C26.5623 23.6566 26.4212 23.6267 26.2942 23.5632L22.5 21.6665V18.3332Z" stroke="#3F435C" stroke-width="1.5" stroke-linecap="round" stroke-linejoin="round"/>
<path d="M20.8333 15H14.1667C13.2462 15 12.5 15.7462 12.5 16.6667V23.3333C12.5 24.2538 13.2462 25 14.1667 25H20.8333C21.7538 25 22.5 24.2538 22.5 23.3333V16.6667C22.5 15.7462 21.7538 15 20.8333 15Z" stroke="#3F435C" stroke-width="1.5" stroke-linecap="round" stroke-linejoin="round"/>
</svg>
