<svg width="88" height="88" viewBox="0 0 88 88" fill="none" xmlns="http://www.w3.org/2000/svg">
<path d="M44 88C35.2976 88 26.7907 85.4194 19.5549 80.5847C12.3192 75.7499 6.67957 68.878 3.34932 60.8381C0.0190647 52.7981 -0.852282 43.9512 0.845467 35.416C2.54322 26.8809 6.73381 19.0408 12.8873 12.8873C19.0408 6.73381 26.8809 2.54322 35.416 0.845467C43.9512 -0.852282 52.7981 0.0190647 60.8381 3.34932C68.878 6.67957 75.7499 12.3192 80.5847 19.5549C85.4194 26.7907 88 35.2976 88 44C87.9866 55.6654 83.3466 66.8493 75.0979 75.098C66.8492 83.3467 55.6654 87.9866 44 88ZM44 1.26131C35.5471 1.26131 27.284 3.76789 20.2557 8.46408C13.2273 13.1603 7.74939 19.8351 4.5146 27.6446C1.27981 35.4541 0.433436 44.0474 2.08252 52.3379C3.7316 60.6284 7.80207 68.2437 13.7792 74.2208C19.7563 80.198 27.3716 84.2684 35.6621 85.9175C43.9526 87.5666 52.5459 86.7202 60.3554 83.4854C68.1649 80.2506 74.8397 74.7727 79.5359 67.7444C84.2321 60.716 86.7387 52.4529 86.7387 44C86.727 32.6686 82.2205 21.8046 74.2079 13.7921C66.1954 5.77956 55.3314 1.27299 44 1.26131Z" fill="#34CAA5"/>
<path d="M43.7106 79.3035C36.7257 79.3035 29.8977 77.2322 24.09 73.3516C18.2824 69.4711 13.7558 63.9555 11.0828 57.5023C8.40983 51.0491 7.71046 43.9483 9.07313 37.0976C10.4358 30.247 13.7993 23.9543 18.7384 19.0152C23.6774 14.0762 29.9701 10.7127 36.8208 9.34999C43.6714 7.98731 50.7723 8.68669 57.2254 11.3597C63.6786 14.0327 69.1942 18.5592 73.0748 24.3669C76.9553 30.1746 79.0266 37.0026 79.0266 43.9874C79.0266 48.6252 78.1131 53.2176 76.3383 57.5023C74.5635 61.787 71.9622 65.6802 68.6828 68.9596C65.4034 72.239 61.5102 74.8404 57.2254 76.6152C52.9407 78.39 48.3483 79.3035 43.7106 79.3035ZM43.7106 9.30205C36.8504 9.30205 30.1444 11.3363 24.4404 15.1476C18.7364 18.9589 14.2907 24.376 11.6655 30.7139C9.0402 37.0518 8.35332 44.0259 9.69166 50.7542C11.03 57.4825 14.3335 63.6629 19.1843 68.5137C24.0351 73.3645 30.2155 76.668 36.9438 78.0064C43.6721 79.3447 50.6462 78.6578 56.9841 76.0326C63.322 73.4073 68.7391 68.9616 72.5504 63.2576C76.3617 57.5536 78.3959 50.8476 78.3959 43.9874C78.3892 34.7927 74.732 25.9768 68.2279 19.4775C61.7239 12.9782 52.9053 9.32727 43.7106 9.32727V9.30205ZM65.4993 63.2031H61.028V57.7355H55.5667V53.2768H61.028V47.8154H65.4867V53.2768H70.9544V57.7355H65.4867L65.4993 63.2031ZM61.6713 62.5725H64.8686V57.1048H70.3363V53.9075H64.8686V48.4461H61.6587V53.9075H56.1973V57.1048H61.6587L61.6713 62.5725ZM59.2496 62.2193H25.1949C24.6663 62.2193 24.1595 62.0094 23.7857 61.6357C23.412 61.2619 23.202 60.755 23.202 60.2265V27.7484C23.202 27.2193 23.4118 26.7117 23.7854 26.337C24.1589 25.9623 24.6658 25.7509 25.1949 25.7492H62.1695C62.4333 25.7467 62.695 25.7966 62.9394 25.8961C63.1838 25.9955 63.406 26.1424 63.5931 26.3284C63.7803 26.5144 63.9286 26.7357 64.0296 26.9794C64.1305 27.2232 64.1821 27.4845 64.1812 27.7484V46.037H59.6028V30.2709H27.7679V51.3407H29.1364L36.7987 39.3585L44.4673 51.3407H45.8926L42.5313 46.0938L45.2304 41.8874L51.2909 51.347H53.8135V59.5454H59.2748L59.2496 62.2193ZM25.1949 26.361C24.8341 26.3692 24.4912 26.5197 24.2409 26.7795C23.9905 27.0393 23.8528 27.3876 23.8579 27.7484V60.2391C23.8579 60.6004 24.0014 60.9469 24.2569 61.2023C24.5124 61.4578 24.8588 61.6013 25.2201 61.6013H58.6442V60.1698H53.1828V51.9714H50.9377L45.2241 43.0541L43.2754 46.0938L47.0593 51.9714H44.152L36.7987 40.563L29.4959 51.984H27.1373V29.6403H60.2397V45.4064H63.5506V27.7484C63.5506 27.3865 63.4073 27.0394 63.152 26.7829C62.8967 26.5265 62.5503 26.3815 62.1884 26.3799L25.1949 26.361ZM53.5738 41.0108C52.8254 41.0108 52.0939 40.7889 51.4716 40.3731C50.8494 39.9573 50.3644 39.3664 50.078 38.675C49.7916 37.9836 49.7167 37.2227 49.8627 36.4887C50.0087 35.7547 50.369 35.0805 50.8982 34.5513C51.4274 34.0222 52.1016 33.6618 52.8356 33.5158C53.5696 33.3698 54.3304 33.4447 55.0218 33.7311C55.7132 34.0175 56.3042 34.5025 56.72 35.1247C57.1358 35.747 57.3577 36.4786 57.3577 37.2269C57.361 37.7244 57.2662 38.2176 57.0787 38.6783C56.8912 39.1391 56.6147 39.5584 56.2651 39.9122C55.9154 40.266 55.4993 40.5473 55.0408 40.7402C54.5822 40.933 54.0902 41.0336 53.5927 41.036L53.5738 41.0108ZM53.5738 34.0737C52.9502 34.0737 52.3405 34.2587 51.822 34.6051C51.3034 34.9516 50.8993 35.4441 50.6606 36.0203C50.422 36.5964 50.3595 37.2304 50.4812 37.8421C50.6029 38.4538 50.9032 39.0156 51.3442 39.4566C51.7851 39.8976 52.347 40.1979 52.9587 40.3196C53.5703 40.4412 54.2043 40.3788 54.7805 40.1401C55.3567 39.9015 55.8491 39.4973 56.1956 38.9788C56.5421 38.4602 56.727 37.8506 56.727 37.2269C56.7295 36.8129 56.6504 36.4023 56.4943 36.0188C56.3381 35.6353 56.1079 35.2863 55.8169 34.9917C55.5258 34.6972 55.1796 34.4628 54.798 34.3021C54.4164 34.1413 54.0068 34.0573 53.5927 34.0548L53.5738 34.0737Z" fill="#34CAA5"/>
</svg>
