<svg width="56" height="56" viewBox="0 0 56 56" fill="none" xmlns="http://www.w3.org/2000/svg">
<path d="M46.6654 49C46.6654 50.933 45.0984 52.5 43.1654 52.5H12.832C10.899 52.5 9.33203 50.933 9.33203 49V7C9.33203 5.067 10.899 3.5 12.832 3.5H33.5489C34.4772 3.5 35.3674 3.86875 36.0238 4.52513L45.6402 14.1415C46.2966 14.7979 46.6654 15.6882 46.6654 16.6164V49Z" fill="#BDEADF"/>
<path d="M16.625 21.875H36.4583V24.2083H16.625V21.875ZM16.625 26.5417H31.7917V28.875H16.625V26.5417ZM16.625 31.2083H36.4583V33.5417H16.625V31.2083ZM16.625 35.875H31.7917V38.2083H16.625V35.875Z" fill="white"/>
<rect x="35" y="38.5" width="17.5" height="17.5" rx="8.75" fill="#34CAA5"/>
<path d="M43.75 44.1875V50.3125" stroke="white" stroke-width="1.3125" stroke-linecap="round" stroke-linejoin="round"/>
<path d="M40.6875 47.25H46.8125" stroke="white" stroke-width="1.3125" stroke-linecap="round" stroke-linejoin="round"/>
</svg>
