<svg width="20" height="21" viewBox="0 0 20 21" fill="none" xmlns="http://www.w3.org/2000/svg">
<path d="M1.28223 3.18832C1.28223 2.26694 2.02842 1.52002 2.94889 1.52002H7.05167C7.97215 1.52002 8.71834 2.26694 8.71834 3.18832V7.29511C8.71834 8.21648 7.97215 8.9634 7.05167 8.9634H2.94889C2.02842 8.9634 1.28223 8.21648 1.28223 7.2951V3.18832Z" fill="#34CAA5"/>
<path d="M11.2188 13.1341C11.2188 12.2127 11.9649 11.4658 12.8854 11.4658H16.9882C17.9087 11.4658 18.6549 12.2127 18.6549 13.1341V17.2409C18.6549 18.1623 17.9087 18.9092 16.9882 18.9092H12.8854C11.9649 18.9092 11.2188 18.1623 11.2188 17.2409V13.1341Z" fill="#34CAA5"/>
<ellipse opacity="0.4" cx="14.9368" cy="5.24171" rx="3.71805" ry="3.72169" fill="#34CAA5"/>
<ellipse cx="5.00028" cy="15.1875" rx="3.71805" ry="3.72169" fill="#34CAA5"/>
</svg>
