<svg width="33" height="32" viewBox="0 0 33 32" fill="none" xmlns="http://www.w3.org/2000/svg">
<rect x="0.5" width="32" height="32" rx="16" fill="#EBFFFA"/>
<path d="M14.2812 17.5531C14.2812 18.4131 14.9413 19.1064 15.7613 19.1064H17.4346C18.1479 19.1064 18.7279 18.4997 18.7279 17.7531C18.7279 16.9397 18.3746 16.6531 17.8479 16.4664L15.1612 15.5331C14.6346 15.3464 14.2812 15.0597 14.2812 14.2464C14.2812 13.4997 14.8612 12.8931 15.5746 12.8931H17.2479C18.0679 12.8931 18.7279 13.5864 18.7279 14.4464" stroke="#34CAA5" stroke-width="1.5" stroke-linecap="round" stroke-linejoin="round"/>
<path d="M16.5 12V20" stroke="#34CAA5" stroke-width="1.5" stroke-linecap="round" stroke-linejoin="round"/>
<path d="M16.4997 22.6668C20.1816 22.6668 23.1663 19.6821 23.1663 16.0002C23.1663 12.3183 20.1816 9.3335 16.4997 9.3335C12.8178 9.3335 9.83301 12.3183 9.83301 16.0002C9.83301 19.6821 12.8178 22.6668 16.4997 22.6668Z" stroke="#34CAA5" stroke-width="1.5" stroke-linecap="round" stroke-linejoin="round"/>
</svg>
