<svg width="22" height="23" viewBox="0 0 22 23" fill="none" xmlns="http://www.w3.org/2000/svg">
<path d="M11 20.486C12.2696 20.486 13.3497 19.72 13.75 18.6509H8.25C8.65029 19.72 9.73039 20.486 11 20.486Z" fill="#34CAA5"/>
<path d="M5.70457 17.7332H16.2961C17.9721 17.7332 18.9288 16.0457 17.9232 14.8632C17.478 14.3397 17.2037 13.7188 17.1298 13.0677L16.7199 9.45242C16.4989 7.50301 15.045 5.90329 13.0811 5.23023V5.13506C13.0811 3.98476 12.1495 3.05225 11.0003 3.05225C9.85114 3.05225 8.91954 3.98476 8.91954 5.13506V5.23023C6.95568 5.90329 5.50179 7.50301 5.28075 9.45242L4.87083 13.0677C4.797 13.7188 4.52265 14.3397 4.07746 14.8632C3.07185 16.0457 4.02856 17.7332 5.70457 17.7332Z" fill="#3F435C"/>
</svg>
