<svg width="20" height="20" viewBox="0 0 20 20" fill="none" xmlns="http://www.w3.org/2000/svg">
<path d="M18.3337 15.8335V13.3335C18.3337 11.9528 17.2144 10.8335 15.8337 10.8335H15.0003C14.4757 10.8335 13.9817 11.0805 13.667 11.5002L12.667 12.8335C12.0375 13.6728 11.0495 14.1668 10.0003 14.1668C8.95113 14.1668 7.96317 13.6728 7.33366 12.8335L6.33366 11.5002C6.0189 11.0805 5.52492 10.8335 5.00033 10.8335H4.16699C2.78628 10.8335 1.66699 11.9528 1.66699 13.3335V15.8335C1.66699 17.2142 2.78628 18.3335 4.16699 18.3335H15.8337C17.2144 18.3335 18.3337 17.2142 18.3337 15.8335Z" fill="#3F435C"/>
<path fill-rule="evenodd" clip-rule="evenodd" d="M4.16634 10.8332H4.99967C5.52427 10.8332 6.01825 11.0802 6.33301 11.4998L7.33301 12.8332C7.96252 13.6725 8.95048 14.1665 9.99967 14.1665C11.0489 14.1665 12.0368 13.6725 12.6663 12.8332L13.6663 11.4998C13.9811 11.0802 14.4751 10.8332 14.9997 10.8332H15.833C16.1252 10.8332 16.4057 10.8833 16.6663 10.9754V4.99984C16.6663 3.15889 15.174 1.6665 13.333 1.6665H6.66634C4.82539 1.6665 3.33301 3.15889 3.33301 4.99984V10.9754C3.59366 10.8833 3.87414 10.8332 4.16634 10.8332ZM12.4997 8.12484C12.8449 8.12484 13.1247 7.84502 13.1247 7.49984C13.1247 7.15466 12.8449 6.87484 12.4997 6.87484H7.49967C7.1545 6.87484 6.87468 7.15466 6.87468 7.49984C6.87468 7.84502 7.1545 8.12484 7.49967 8.12484H12.4997Z" fill="#34CAA5"/>
</svg>
