<svg width="20" height="21" viewBox="0 0 20 21" fill="none" xmlns="http://www.w3.org/2000/svg">
<path d="M1.66699 8.72575C1.66699 6.883 3.15938 5.38916 5.00033 5.38916H15.0003C16.8413 5.38916 18.3337 6.883 18.3337 8.72575V15.3989C18.3337 17.2417 16.8413 18.7355 15.0003 18.7355H5.00033C3.15938 18.7355 1.66699 17.2417 1.66699 15.3989V8.72575Z" fill="#3F435C"/>
<path fill-rule="evenodd" clip-rule="evenodd" d="M9.16699 2.67798C8.13146 2.67798 7.29199 3.51827 7.29199 4.55481V6.22311C7.29199 6.56862 7.01217 6.84872 6.66699 6.84872C6.32181 6.84872 6.04199 6.56862 6.04199 6.22311V4.55481C6.04199 2.82724 7.4411 1.42676 9.16699 1.42676H10.8337C12.5595 1.42676 13.9587 2.82724 13.9587 4.55481V6.22311C13.9587 6.56862 13.6788 6.84872 13.3337 6.84872C12.9885 6.84872 12.7087 6.56862 12.7087 6.22311V4.55481C12.7087 3.51827 11.8692 2.67798 10.8337 2.67798H9.16699Z" fill="#34CAA5"/>
<path d="M15.0003 5.38916H5.00033C3.15938 5.38916 1.66699 6.883 1.66699 8.72575V11.2282H18.3337V8.72575C18.3337 6.883 16.8413 5.38916 15.0003 5.38916Z" fill="#3F435C"/>
<path d="M11.6673 11.2279C11.6673 12.1492 10.9211 12.8962 10.0007 12.8962C9.08018 12.8962 8.33398 12.1492 8.33398 11.2279C8.33398 10.3065 9.08018 9.55957 10.0007 9.55957C10.9211 9.55957 11.6673 10.3065 11.6673 11.2279Z" fill="#34CAA5"/>
</svg>
