<svg width="20" height="21" viewBox="0 0 20 21" fill="none" xmlns="http://www.w3.org/2000/svg">
<path d="M3.33301 16.6012V3.67904C3.33301 2.75766 4.0792 2.01074 4.99967 2.01074H14.9997C15.9201 2.01074 16.6663 2.75766 16.6663 3.67904L16.6663 16.6012C16.6663 17.6434 15.468 18.2288 14.6473 17.5876L11.0251 14.2866C10.4224 13.8158 9.57695 13.8158 8.97424 14.2866L5.35208 17.5876C4.53131 18.2288 3.33301 17.6434 3.33301 16.6012Z" fill="#3F435C"/>
<path d="M4.99967 2.01074H14.9997C15.9201 2.01074 16.6663 2.75766 16.6663 3.67904V6.18148H3.33301V3.67904C3.33301 2.75766 4.0792 2.01074 4.99967 2.01074Z" fill="#34CAA5"/>
</svg>
