<svg width="32" height="32" viewBox="0 0 32 32" fill="none" xmlns="http://www.w3.org/2000/svg">
<rect width="32" height="32" rx="16" fill="#EBFFFA"/>
<path d="M10.1133 12.96L15.9999 16.3666L21.8466 12.9799" stroke="#34CAA5" stroke-linecap="round" stroke-linejoin="round"/>
<path d="M16 22.4065V16.3599" stroke="#34CAA5" stroke-linecap="round" stroke-linejoin="round"/>
<path d="M22.4071 14.1135V17.8869C22.4071 17.9202 22.4071 17.9468 22.4004 17.9802C21.9337 17.5735 21.3337 17.3335 20.6671 17.3335C20.0404 17.3335 19.4604 17.5535 19.0004 17.9202C18.3871 18.4068 18.0004 19.1602 18.0004 20.0002C18.0004 20.5002 18.1404 20.9735 18.3871 21.3735C18.4471 21.4802 18.5204 21.5802 18.6004 21.6735L17.3804 22.3469C16.6204 22.7735 15.3804 22.7735 14.6204 22.3469L11.0604 20.3735C10.2537 19.9268 9.59375 18.8069 9.59375 17.8869V14.1135C9.59375 13.1935 10.2537 12.0735 11.0604 11.6268L14.6204 9.6535C15.3804 9.22683 16.6204 9.22683 17.3804 9.6535L20.9404 11.6268C21.7471 12.0735 22.4071 13.1935 22.4071 14.1135Z" stroke="#34CAA5" stroke-linecap="round" stroke-linejoin="round"/>
<path d="M23.3333 20.0002C23.3333 20.8002 22.98 21.5135 22.4267 22.0002C21.9533 22.4135 21.34 22.6668 20.6667 22.6668C19.1933 22.6668 18 21.4735 18 20.0002C18 19.1602 18.3867 18.4068 19 17.9202C19.46 17.5535 20.04 17.3335 20.6667 17.3335C22.14 17.3335 23.3333 18.5268 23.3333 20.0002Z" stroke="#34CAA5" stroke-miterlimit="10" stroke-linecap="round" stroke-linejoin="round"/>
<path d="M20.8333 19.167V20.167L20 20.667" stroke="#34CAA5" stroke-miterlimit="10" stroke-linecap="round" stroke-linejoin="round"/>
</svg>
