<svg width="44" height="37" viewBox="0 0 44 37" fill="none" xmlns="http://www.w3.org/2000/svg">
<g opacity="0.3">
<ellipse cx="20.9131" cy="16.2531" rx="16.087" ry="16.1027" fill="#34CAA5"/>
<ellipse cx="2.41304" cy="2.56579" rx="2.41304" ry="2.4154" fill="#34CAA5"/>
</g>
<path d="M20.0003 10.3332H36.0003C38.9458 10.3332 41.3337 12.721 41.3337 15.6665V22.3332C41.3337 25.2787 38.9458 27.6665 36.0003 27.6665H25.3337C22.3881 27.6665 20.0003 25.2787 20.0003 22.3332V10.3332ZM20.0003 10.3332C20.0003 8.86041 18.8064 7.6665 17.3337 7.6665H14.667" stroke="#34CAA5" stroke-width="2" stroke-linecap="round" stroke-linejoin="round"/>
<path d="M26.667 32.3335C26.667 33.4381 25.7716 34.3335 24.667 34.3335C23.5624 34.3335 22.667 33.4381 22.667 32.3335C22.667 31.2289 23.5624 30.3335 24.667 30.3335C25.7716 30.3335 26.667 31.2289 26.667 32.3335Z" stroke="#34CAA5" stroke-width="2"/>
<path d="M38.667 32.3335C38.667 33.4381 37.7716 34.3335 36.667 34.3335C35.5624 34.3335 34.667 33.4381 34.667 32.3335C34.667 31.2289 35.5624 30.3335 36.667 30.3335C37.7716 30.3335 38.667 31.2289 38.667 32.3335Z" stroke="#34CAA5" stroke-width="2"/>
<path d="M26.667 21C29.8085 22.7871 31.5304 22.7684 34.667 21" stroke="#34CAA5" stroke-width="2" stroke-linecap="round" stroke-linejoin="round"/>
</svg>
