<svg width="45" height="38" viewBox="0 0 45 38" fill="none" xmlns="http://www.w3.org/2000/svg">
<g opacity="0.3">
<ellipse cx="20.9131" cy="16.2531" rx="16.087" ry="16.1027" fill="#34CAA5"/>
<ellipse cx="2.41304" cy="2.56579" rx="2.41304" ry="2.4154" fill="#34CAA5"/>
</g>
<path d="M23.6904 24.2099C23.6904 25.9409 25.0176 27.3365 26.6665 27.3365H30.0314C31.4658 27.3365 32.6321 26.1154 32.6321 24.6125C32.6321 22.9754 31.9216 22.3983 30.8625 22.0226L25.46 20.144C24.4009 19.7682 23.6904 19.1912 23.6904 17.5541C23.6904 16.0512 24.8567 14.8301 26.2912 14.8301H29.656C31.3049 14.8301 32.6321 16.2256 32.6321 17.9567" stroke="#34CAA5" stroke-width="2" stroke-linecap="round" stroke-linejoin="round"/>
<path d="M28.1523 13.0322V29.1349" stroke="#34CAA5" stroke-width="2" stroke-linecap="round" stroke-linejoin="round"/>
<path d="M28.1529 34.5024C35.5567 34.5024 41.5587 28.4945 41.5587 21.0835C41.5587 13.6724 35.5567 7.66455 28.1529 7.66455C20.7491 7.66455 14.7471 13.6724 14.7471 21.0835C14.7471 28.4945 20.7491 34.5024 28.1529 34.5024Z" stroke="#34CAA5" stroke-width="2" stroke-linecap="round" stroke-linejoin="round"/>
</svg>
