<svg width="20" height="21" viewBox="0 0 20 21" fill="none" xmlns="http://www.w3.org/2000/svg">
<g opacity="0.54">
<path d="M11.6663 10.1681C11.6663 11.0895 10.9201 11.8364 9.99967 11.8364C9.0792 11.8364 8.33301 11.0895 8.33301 10.1681C8.33301 9.24677 9.0792 8.49984 9.99967 8.49984C10.9201 8.49984 11.6663 9.24677 11.6663 10.1681Z" stroke="#04091E" stroke-width="1.5"/>
<path d="M11.6663 3.49496C11.6663 4.41633 10.9201 5.16325 9.99967 5.16325C9.0792 5.16325 8.33301 4.41633 8.33301 3.49496C8.33301 2.57358 9.0792 1.82666 9.99967 1.82666C10.9201 1.82666 11.6663 2.57358 11.6663 3.49496Z" stroke="#04091E" stroke-width="1.5"/>
<path d="M11.6663 16.8413C11.6663 17.7627 10.9201 18.5096 9.99967 18.5096C9.0792 18.5096 8.33301 17.7627 8.33301 16.8413C8.33301 15.9199 9.0792 15.173 9.99967 15.173C10.9201 15.173 11.6663 15.9199 11.6663 16.8413Z" stroke="#04091E" stroke-width="1.5"/>
</g>
</svg>
