<svg width="20" height="21" viewBox="0 0 20 21" fill="none" xmlns="http://www.w3.org/2000/svg">
<path d="M15.4318 3.52246L14.4446 3.52246L10.5558 3.52246L9.56859 3.52246C8.28227 3.52246 7.48082 4.91782 8.12896 6.02891L11.0606 11.0545C11.7037 12.157 13.2967 12.157 13.9398 11.0545L16.8714 6.02891C17.5196 4.91782 16.7181 3.52246 15.4318 3.52246Z" fill="#34CAA5"/>
<path opacity="0.4" d="M4.16878 16.0483L5.15594 16.0483L9.04483 16.0483L10.032 16.0483C11.3183 16.0483 12.1198 14.653 11.4716 13.5419L8.54002 8.51628C7.89689 7.41377 6.30389 7.41377 5.66076 8.51628L2.72915 13.5419C2.08101 14.653 2.88247 16.0483 4.16878 16.0483Z" fill="#34CAA5"/>
</svg>
